  0
SECTION
  2
HEADER
  9
$ANGBASE
  50
0.0
  9
$ANGDIR
  70
1
  9
$MEASUREMENT
  70
1
  0
ENDSEC
  0
SECTION
  2
TABLES
  0
TABLE
  2
LTYPE
  70
4
  0
LTYPE
  5
40F
  2
CONTINUOUS
  70
0
  3
Solid line
  72
65
  73
0
  40
0.0
  0
LTYPE
  5
410
  2
DASHDOT
 70
0
  3
Dash Dot ____ _ ____ _
 72
65
 73
4
 40
2.0
 49
1.25
 49
-0.25
 49
0.25
 49
-0.25
  0
LTYPE
  5
411
  2
DASHED
 70
0
  3
Dashed __ __ __ __ __
 72
65
 73
2
 40
0.75
 49
0.5
 49
-0.25
  0
LTYPE
  5
43B
  2
DOTTED
 70
0
  3
Dotted .  .  .  .
 72
65
 73
2
 40
0.2
 49
0.0
 49
-0.2
  0
ENDTAB
  0
TABLE
  2
STYLE
  70
4
  0
STYLE
  2
KICAD
  70
0
  40
0
  41
1
  42
1
  50
0
  71
0
  3
isocp.shx
  0
STYLE
  2
KICADB
  70
0
  40
0
  41
1
  42
1
  50
0
  71
0
  3
isocp.shx
  0
STYLE
  2
KICADI
  70
0
  40
0
  41
1
  42
1
  50
15
  71
0
  3
isocp.shx
  0
STYLE
  2
KICADBI
  70
0
  40
0
  41
1
  42
1
  50
15
  71
0
  3
isocp.shx
  0
ENDTAB
  0
TABLE
  2
LAYER
  70
1
  0
LAYER
  2
BLACK
  70
0
  62
7
  6
CONTINUOUS
  0
ENDTAB
  0
ENDSEC
  0
SECTION
  2
ENTITIES
0
CIRCLE
8
BLACK
10
166.37
20
-109.22
40
2.7
0
LINE
8
BLACK
6
CONTINUOUS
10
134.57
20
-85.19
11
147.37
21
-85.19
0
LINE
8
BLACK
6
CONTINUOUS
10
147.37
20
-85.19
11
147.37
21
-97.99
0
LINE
8
BLACK
6
CONTINUOUS
10
147.37
20
-97.99
11
134.57
21
-97.99
0
LINE
8
BLACK
6
CONTINUOUS
10
134.57
20
-97.99
11
134.57
21
-85.19
0
CIRCLE
8
BLACK
10
151.13
20
-122.77
40
3.3
0
LINE
8
BLACK
6
CONTINUOUS
10
119.33
20
-85.19
11
132.13
21
-85.19
0
LINE
8
BLACK
6
CONTINUOUS
10
132.13
20
-85.19
11
132.13
21
-97.99
0
LINE
8
BLACK
6
CONTINUOUS
10
132.13
20
-97.99
11
119.33
21
-97.99
0
LINE
8
BLACK
6
CONTINUOUS
10
119.33
20
-97.99
11
119.33
21
-85.19
0
CIRCLE
8
BLACK
10
100.33
20
-122.77
40
3.3
0
CIRCLE
8
BLACK
10
240.03
20
-77.47
40
3.3
0
CIRCLE
8
BLACK
10
83.82
20
-121.77
40
3.5
0
CIRCLE
8
BLACK
10
151.13
20
-109.22
40
2.7
0
CIRCLE
8
BLACK
10
240.03
20
-109.22
40
2.7
0
LINE
8
BLACK
6
CONTINUOUS
10
52.07
20
-63.3298
11
255.27
21
-63.3298
0
LINE
8
BLACK
6
CONTINUOUS
10
255.27
20
-63.3298
11
255.27
21
-131.91
0
LINE
8
BLACK
6
CONTINUOUS
10
255.27
20
-131.91
11
52.07
21
-131.91
0
LINE
8
BLACK
6
CONTINUOUS
10
52.07
20
-131.91
11
52.07
21
-63.3298
0
CIRCLE
8
BLACK
10
186.69
20
-109.22
40
2.7
0
CIRCLE
8
BLACK
10
186.69
20
-77.47
40
3.3
0
CIRCLE
8
BLACK
10
133.35
20
-122.77
40
3.3
0
CIRCLE
8
BLACK
10
204.47
20
-122.77
40
3.3
0
CIRCLE
8
BLACK
10
118.11
20
-122.77
40
3.3
0
CIRCLE
8
BLACK
10
204.47
20
-77.47
40
3.3
0
CIRCLE
8
BLACK
10
166.37
20
-122.77
40
3.3
0
CIRCLE
8
BLACK
10
222.25
20
-109.22
40
2.7
0
CIRCLE
8
BLACK
10
240.03
20
-122.77
40
3.3
0
CIRCLE
8
BLACK
10
133.35
20
-109.22
40
2.7
0
CIRCLE
8
BLACK
10
222.25
20
-122.77
40
3.3
0
CIRCLE
8
BLACK
10
118.11
20
-109.22
40
2.7
0
LINE
8
BLACK
6
CONTINUOUS
10
62.03
20
-68.705
11
100.53
21
-68.705
0
LINE
8
BLACK
6
CONTINUOUS
10
100.53
20
-68.705
11
100.53
21
-100.205
0
LINE
8
BLACK
6
CONTINUOUS
10
100.53
20
-100.205
11
62.03
21
-100.205
0
LINE
8
BLACK
6
CONTINUOUS
10
62.03
20
-100.205
11
62.03
21
-68.705
0
CIRCLE
8
BLACK
10
186.69
20
-122.77
40
3.3
0
CIRCLE
8
BLACK
10
161.29
20
-77.47
40
3.7
0
LINE
8
BLACK
6
CONTINUOUS
10
119.33
20
-69.8
11
132.13
21
-69.8
0
LINE
8
BLACK
6
CONTINUOUS
10
132.13
20
-69.8
11
132.13
21
-82.6
0
LINE
8
BLACK
6
CONTINUOUS
10
132.13
20
-82.6
11
119.33
21
-82.6
0
LINE
8
BLACK
6
CONTINUOUS
10
119.33
20
-82.6
11
119.33
21
-69.8
0
LINE
8
BLACK
6
CONTINUOUS
10
134.57
20
-69.8
11
147.37
21
-69.8
0
LINE
8
BLACK
6
CONTINUOUS
10
147.37
20
-69.8
11
147.37
21
-82.6
0
LINE
8
BLACK
6
CONTINUOUS
10
147.37
20
-82.6
11
134.57
21
-82.6
0
LINE
8
BLACK
6
CONTINUOUS
10
134.57
20
-82.6
11
134.57
21
-69.8
0
CIRCLE
8
BLACK
10
204.47
20
-109.22
40
2.7
0
CIRCLE
8
BLACK
10
222.25
20
-77.47
40
3.3
0
LINE
8
BLACK
6
CONTINUOUS
10
64.06
20
-123.02
11
70.56
21
-123.02
0
LINE
8
BLACK
6
CONTINUOUS
10
70.56
20
-123.02
11
70.56
21
-127.32
0
LINE
8
BLACK
6
CONTINUOUS
10
70.56
20
-127.32
11
64.06
21
-127.32
0
LINE
8
BLACK
6
CONTINUOUS
10
64.06
20
-127.32
11
64.06
21
-123.02
  0
ENDSEC
  0
EOF
