  0
SECTION
  2
HEADER
  9
$ANGBASE
  50
0.0
  9
$ANGDIR
  70
1
  9
$MEASUREMENT
  70
1
  0
ENDSEC
  0
SECTION
  2
TABLES
  0
TABLE
  2
LTYPE
  70
4
  0
LTYPE
  5
40F
  2
CONTINUOUS
  70
0
  3
Solid line
  72
65
  73
0
  40
0.0
  0
LTYPE
  5
410
  2
DASHDOT
 70
0
  3
Dash Dot ____ _ ____ _
 72
65
 73
4
 40
2.0
 49
1.25
 49
-0.25
 49
0.25
 49
-0.25
  0
LTYPE
  5
411
  2
DASHED
 70
0
  3
Dashed __ __ __ __ __
 72
65
 73
2
 40
0.75
 49
0.5
 49
-0.25
  0
LTYPE
  5
43B
  2
DOTTED
 70
0
  3
Dotted .  .  .  .
 72
65
 73
2
 40
0.2
 49
0.0
 49
-0.2
  0
ENDTAB
  0
TABLE
  2
STYLE
  70
4
  0
STYLE
  2
KICAD
  70
0
  40
0
  41
1
  42
1
  50
0
  71
0
  3
isocp.shx
  0
STYLE
  2
KICADB
  70
0
  40
0
  41
1
  42
1
  50
0
  71
0
  3
isocp.shx
  0
STYLE
  2
KICADI
  70
0
  40
0
  41
1
  42
1
  50
15
  71
0
  3
isocp.shx
  0
STYLE
  2
KICADBI
  70
0
  40
0
  41
1
  42
1
  50
15
  71
0
  3
isocp.shx
  0
ENDTAB
  0
TABLE
  2
LAYER
  70
1
  0
LAYER
  2
BLACK
  70
0
  62
7
  6
CONTINUOUS
  0
ENDTAB
  0
ENDSEC
  0
SECTION
  2
ENTITIES
0
CIRCLE
8
BLACK
10
166.37
20
-109.22
40
2.65
0
LINE
8
BLACK
6
CONTINUOUS
10
134.77
20
-85.39
11
147.17
21
-85.39
0
LINE
8
BLACK
6
CONTINUOUS
10
147.17
20
-85.39
11
147.17
21
-97.79
0
LINE
8
BLACK
6
CONTINUOUS
10
147.17
20
-97.79
11
134.77
21
-97.79
0
LINE
8
BLACK
6
CONTINUOUS
10
134.77
20
-97.79
11
134.77
21
-85.39
0
CIRCLE
8
BLACK
10
116.84
20
-99.06
40
1.1
0
CIRCLE
8
BLACK
10
151.13
20
-122.77
40
3
0
LINE
8
BLACK
6
CONTINUOUS
10
119.53
20
-85.39
11
131.93
21
-85.39
0
LINE
8
BLACK
6
CONTINUOUS
10
131.93
20
-85.39
11
131.93
21
-97.79
0
LINE
8
BLACK
6
CONTINUOUS
10
131.93
20
-97.79
11
119.53
21
-97.79
0
LINE
8
BLACK
6
CONTINUOUS
10
119.53
20
-97.79
11
119.53
21
-85.39
0
CIRCLE
8
BLACK
10
109.22
20
-69.85
40
1.1
0
CIRCLE
8
BLACK
10
100.33
20
-122.77
40
3
0
CIRCLE
8
BLACK
10
240.03
20
-77.47
40
3
0
CIRCLE
8
BLACK
10
83.82
20
-121.77
40
3.75
0
CIRCLE
8
BLACK
10
151.13
20
-109.22
40
2.65
0
CIRCLE
8
BLACK
10
240.03
20
-109.22
40
2.65
0
LINE
8
BLACK
6
CONTINUOUS
10
52.07
20
-64.77
11
255.27
21
-64.77
0
LINE
8
BLACK
6
CONTINUOUS
10
255.27
20
-64.77
11
255.27
21
-131.91
0
LINE
8
BLACK
6
CONTINUOUS
10
255.27
20
-131.91
11
52.07
21
-131.91
0
LINE
8
BLACK
6
CONTINUOUS
10
52.07
20
-131.91
11
52.07
21
-64.77
0
CIRCLE
8
BLACK
10
186.69
20
-109.22
40
2.65
0
CIRCLE
8
BLACK
10
186.69
20
-77.47
40
3
0
CIRCLE
8
BLACK
10
133.35
20
-122.77
40
3
0
CIRCLE
8
BLACK
10
204.47
20
-122.77
40
3
0
CIRCLE
8
BLACK
10
118.11
20
-122.77
40
3
0
CIRCLE
8
BLACK
10
109.22
20
-99.06
40
1.1
0
CIRCLE
8
BLACK
10
204.47
20
-77.47
40
3
0
CIRCLE
8
BLACK
10
166.37
20
-122.77
40
3
0
CIRCLE
8
BLACK
10
248.92
20
-99.06
40
1.1
0
CIRCLE
8
BLACK
10
222.25
20
-109.22
40
2.65
0
CIRCLE
8
BLACK
10
58.42
20
-69.85
40
1.1
0
CIRCLE
8
BLACK
10
240.03
20
-122.77
40
3
0
CIRCLE
8
BLACK
10
248.92
20
-69.85
40
1.1
0
CIRCLE
8
BLACK
10
133.35
20
-109.22
40
2.65
0
CIRCLE
8
BLACK
10
222.25
20
-122.77
40
3
0
CIRCLE
8
BLACK
10
118.11
20
-109.22
40
2.65
0
LINE
8
BLACK
6
CONTINUOUS
10
62.23
20
-68.58
11
100.33
21
-68.58
0
LINE
8
BLACK
6
CONTINUOUS
10
100.33
20
-68.58
11
100.33
21
-100.33
0
LINE
8
BLACK
6
CONTINUOUS
10
100.33
20
-100.33
11
62.23
21
-100.33
0
LINE
8
BLACK
6
CONTINUOUS
10
62.23
20
-100.33
11
62.23
21
-68.58
0
CIRCLE
8
BLACK
10
116.84
20
-69.85
40
1.1
0
CIRCLE
8
BLACK
10
186.69
20
-122.77
40
3
0
CIRCLE
8
BLACK
10
161.29
20
-77.47
40
3.5
0
LINE
8
BLACK
6
CONTINUOUS
10
119.53
20
-70
11
131.93
21
-70
0
LINE
8
BLACK
6
CONTINUOUS
10
131.93
20
-70
11
131.93
21
-82.4
0
LINE
8
BLACK
6
CONTINUOUS
10
131.93
20
-82.4
11
119.53
21
-82.4
0
LINE
8
BLACK
6
CONTINUOUS
10
119.53
20
-82.4
11
119.53
21
-70
0
LINE
8
BLACK
6
CONTINUOUS
10
134.77
20
-70
11
147.17
21
-70
0
LINE
8
BLACK
6
CONTINUOUS
10
147.17
20
-70
11
147.17
21
-82.4
0
LINE
8
BLACK
6
CONTINUOUS
10
147.17
20
-82.4
11
134.77
21
-82.4
0
LINE
8
BLACK
6
CONTINUOUS
10
134.77
20
-82.4
11
134.77
21
-70
0
CIRCLE
8
BLACK
10
204.47
20
-109.22
40
2.65
0
CIRCLE
8
BLACK
10
222.25
20
-77.47
40
3
0
LINE
8
BLACK
6
CONTINUOUS
10
64.31
20
-123.07
11
70.31
21
-123.07
0
LINE
8
BLACK
6
CONTINUOUS
10
70.31
20
-123.07
11
70.31
21
-127.27
0
LINE
8
BLACK
6
CONTINUOUS
10
70.31
20
-127.27
11
64.31
21
-127.27
0
LINE
8
BLACK
6
CONTINUOUS
10
64.31
20
-127.27
11
64.31
21
-123.07
0
CIRCLE
8
BLACK
10
58.42
20
-99.06
40
1.1
  0
ENDSEC
  0
EOF
